# xmcd
#
# Track frame offsets:
# 225
# 16330
# 37659
# 53867
# 68617
# 90013
# 108406
# 122326
# 127169
# 149547
# 169304
# 186258
# 211373
# 225214
#
# Disc length: 3263 seconds
#
#
# Revision: 0
# Processed by: cddbd v1.5.2PL0 Copyright (c) Steve Scherf et al.
# Submitted via: FreeRIP 2.91 
#
DISCID=b20cbc0e
DTITLE=Zeca Baleiro - Baladas do Asfalto and outros blues
DYEAR=2005
DGENRE=Blues
TTITLE0=Versos Perdidos
TTITLE1=Balada do Asfalto
TTITLE2=Cachorro Doido
TTITLE3=Meu Amor Minha Flor Minha Menina
TTITLE4=Flores no Asfalto
TTITLE5=Alma Nova
TTITLE6=Balada do Céu Negro
TTITLE7=Mulher Amada
TTITLE8=Cigarro
TTITLE9=Muzak
TTITLE10=Quando Ela Dorme em Minha Casa
TTITLE11=Amargo
TTITLE12=O Silèncio
TTITLE13=Frágil
EXTD=
EXTT0=
EXTT1=
EXTT2=
EXTT3=
EXTT4=
EXTT5=
EXTT6=
EXTT7=
EXTT8=
EXTT9=
EXTT10=
EXTT11=
EXTT12=
EXTT13=
PLAYORDER=
